<svg xmlns="http://www.w3.org/2000/svg" xmlns:xlink="http://www.w3.org/1999/xlink" contentStyleType="text/css" data-diagram-type="SEQUENCE" height="1113px" preserveAspectRatio="none" style="width:1177px;height:1113px;background:#FFFFFF;" version="1.1" viewBox="0 0 1177 1113" width="1177px" zoomAndPan="magnify"><defs/><g><g><title>Router</title><rect fill="#FFFFFF" height="887.1406" style="stroke:#181818;stroke-width:1;" width="10" x="153.8799" y="171.7188"/></g><g><title>Scraper Controller</title><rect fill="#FFFFFF" height="653.3281" style="stroke:#181818;stroke-width:1;" width="10" x="280.3589" y="202.0703"/></g><g><title>Scraper Controller</title><rect fill="#FFFFFF" height="106.4063" style="stroke:#181818;stroke-width:1;" width="10" x="280.3589" y="922.1016"/></g><g><title>Scraper Processor</title><rect fill="#FFFFFF" height="448.2188" style="stroke:#181818;stroke-width:1;" width="10" x="521.7368" y="257.7734"/></g><g><title>Website HTML</title><rect fill="#FFFFFF" height="30.3516" style="stroke:#181818;stroke-width:1;" width="10" x="782.9321" y="454.5313"/></g><g><title>Website HTML</title><rect fill="#FFFFFF" height="30.3516" style="stroke:#181818;stroke-width:1;" width="10" x="782.9321" y="601.9375"/></g><g><title>FlowCtrl</title><rect fill="#FFFFFF" height="66.7031" style="stroke:#181818;stroke-width:1;" width="10" x="878.8838" y="855.3984"/></g><rect fill="none" height="540.2734" style="stroke:#000000;stroke-width:1.5;" width="639.6592" x="211.5591" y="217.0703"/><g><title>Router</title><rect fill="#000000" fill-opacity="0.00000" height="1039.25" width="8" x="154.8799" y="37.6094"/><line style="stroke:#181818;stroke-width:0.5;stroke-dasharray:5,5;" x1="158.8696" x2="158.8696" y1="37.6094" y2="1076.8594"/></g><g><title>Scraper Controller</title><rect fill="#000000" fill-opacity="0.00000" height="1039.25" width="8" x="281.3589" y="37.6094"/><line style="stroke:#181818;stroke-width:0.5;stroke-dasharray:5,5;" x1="284.5591" x2="284.5591" y1="37.6094" y2="1076.8594"/></g><g><title>Scraper Processor</title><rect fill="#000000" fill-opacity="0.00000" height="1039.25" width="8" x="522.7368" y="37.6094"/><line style="stroke:#181818;stroke-width:0.5;stroke-dasharray:5,5;" x1="525.7715" x2="525.7715" y1="37.6094" y2="1076.8594"/></g><g><title>Website HTML</title><rect fill="#000000" fill-opacity="0.00000" height="1039.25" width="8" x="783.9321" y="37.6094"/><line style="stroke:#181818;stroke-width:0.5;stroke-dasharray:5,5;" x1="787.646" x2="787.646" y1="37.6094" y2="1076.8594"/></g><g><title>FlowCtrl</title><rect fill="#000000" fill-opacity="0.00000" height="1039.25" width="8" x="879.8838" y="37.6094"/><line style="stroke:#181818;stroke-width:0.5;stroke-dasharray:5,5;" x1="883.2183" x2="883.2183" y1="37.6094" y2="1076.8594"/></g><g class="participant participant-head" data-participant="Router"><rect fill="#E2E2F0" height="31.6094" rx="2.5" ry="2.5" style="stroke:#181818;stroke-width:0.5;" width="56.0205" x="130.8696" y="5"/><text fill="#000000" font-family="sans-serif" font-size="14" lengthAdjust="spacing" textLength="42.0205" x="137.8696" y="26.5332">Router</text></g><g class="participant participant-tail" data-participant="Router"><rect fill="#E2E2F0" height="31.6094" rx="2.5" ry="2.5" style="stroke:#181818;stroke-width:0.5;" width="56.0205" x="130.8696" y="1075.8594"/><text fill="#000000" font-family="sans-serif" font-size="14" lengthAdjust="spacing" textLength="42.0205" x="137.8696" y="1097.3926">Router</text></g><g class="participant participant-head" data-participant="ScraperCtrl"><rect fill="#E2E2F0" height="31.6094" rx="2.5" ry="2.5" style="stroke:#181818;stroke-width:0.5;" width="127.5996" x="221.5591" y="5"/><text fill="#000000" font-family="sans-serif" font-size="14" lengthAdjust="spacing" textLength="113.5996" x="228.5591" y="26.5332">Scraper Controller</text></g><g class="participant participant-tail" data-participant="ScraperCtrl"><rect fill="#E2E2F0" height="31.6094" rx="2.5" ry="2.5" style="stroke:#181818;stroke-width:0.5;" width="127.5996" x="221.5591" y="1075.8594"/><text fill="#000000" font-family="sans-serif" font-size="14" lengthAdjust="spacing" textLength="113.5996" x="228.5591" y="1097.3926">Scraper Controller</text></g><g class="participant participant-head" data-participant="ScraperProcessor"><rect fill="#E2E2F0" height="31.6094" rx="2.5" ry="2.5" style="stroke:#181818;stroke-width:0.5;" width="129.9307" x="461.7715" y="5"/><text fill="#000000" font-family="sans-serif" font-size="14" lengthAdjust="spacing" textLength="115.9307" x="468.7715" y="26.5332">Scraper Processor</text></g><g class="participant participant-tail" data-participant="ScraperProcessor"><rect fill="#E2E2F0" height="31.6094" rx="2.5" ry="2.5" style="stroke:#181818;stroke-width:0.5;" width="129.9307" x="461.7715" y="1075.8594"/><text fill="#000000" font-family="sans-serif" font-size="14" lengthAdjust="spacing" textLength="115.9307" x="468.7715" y="1097.3926">Scraper Processor</text></g><g class="participant participant-head" data-participant="websiteHTML"><rect fill="#E2E2F0" height="31.6094" rx="2.5" ry="2.5" style="stroke:#181818;stroke-width:0.5;" width="106.5723" x="734.646" y="5"/><text fill="#000000" font-family="sans-serif" font-size="14" lengthAdjust="spacing" textLength="92.5723" x="741.646" y="26.5332">Website HTML</text></g><g class="participant participant-tail" data-participant="websiteHTML"><rect fill="#E2E2F0" height="31.6094" rx="2.5" ry="2.5" style="stroke:#181818;stroke-width:0.5;" width="106.5723" x="734.646" y="1075.8594"/><text fill="#000000" font-family="sans-serif" font-size="14" lengthAdjust="spacing" textLength="92.5723" x="741.646" y="1097.3926">Website HTML</text></g><g class="participant participant-head" data-participant="FlowCtrl"><rect fill="#E2E2F0" height="31.6094" rx="2.5" ry="2.5" style="stroke:#181818;stroke-width:0.5;" width="65.3311" x="851.2183" y="5"/><text fill="#000000" font-family="sans-serif" font-size="14" lengthAdjust="spacing" textLength="51.3311" x="858.2183" y="26.5332">FlowCtrl</text></g><g class="participant participant-tail" data-participant="FlowCtrl"><rect fill="#E2E2F0" height="31.6094" rx="2.5" ry="2.5" style="stroke:#181818;stroke-width:0.5;" width="65.3311" x="851.2183" y="1075.8594"/><text fill="#000000" font-family="sans-serif" font-size="14" lengthAdjust="spacing" textLength="51.3311" x="858.2183" y="1097.3926">FlowCtrl</text></g><g><title>Router</title><rect fill="#FFFFFF" height="887.1406" style="stroke:#181818;stroke-width:1;" width="10" x="153.8799" y="171.7188"/></g><g><title>Scraper Controller</title><rect fill="#FFFFFF" height="653.3281" style="stroke:#181818;stroke-width:1;" width="10" x="280.3589" y="202.0703"/></g><g><title>Scraper Controller</title><rect fill="#FFFFFF" height="106.4063" style="stroke:#181818;stroke-width:1;" width="10" x="280.3589" y="922.1016"/></g><g><title>Scraper Processor</title><rect fill="#FFFFFF" height="448.2188" style="stroke:#181818;stroke-width:1;" width="10" x="521.7368" y="257.7734"/></g><g><title>Website HTML</title><rect fill="#FFFFFF" height="30.3516" style="stroke:#181818;stroke-width:1;" width="10" x="782.9321" y="454.5313"/></g><g><title>Website HTML</title><rect fill="#FFFFFF" height="30.3516" style="stroke:#181818;stroke-width:1;" width="10" x="782.9321" y="601.9375"/></g><g><title>FlowCtrl</title><rect fill="#FFFFFF" height="66.7031" style="stroke:#181818;stroke-width:1;" width="10" x="878.8838" y="855.3984"/></g><path d="M531,52.6094 L531,143.6094 L729,143.6094 L729,62.6094 L719,52.6094 L531,52.6094" fill="#FEFFDD" style="stroke:#181818;stroke-width:0.5;"/><path d="M719,52.6094 L719,62.6094 L729,62.6094 L719,52.6094" fill="#FEFFDD" style="stroke:#181818;stroke-width:0.5;"/><text fill="#000000" font-family="sans-serif" font-size="13" lengthAdjust="spacing" textLength="125.7026" x="537" y="71.1045">ScraperProcessor will</text><text fill="#000000" font-family="sans-serif" font-size="13" lengthAdjust="spacing" textLength="115.6035" x="537" y="87.4561">redirect to a specific</text><text fill="#000000" font-family="sans-serif" font-size="13" lengthAdjust="spacing" textLength="177.0488" x="537" y="103.8076">scraper, based on the website,</text><text fill="#000000" font-family="sans-serif" font-size="13" lengthAdjust="spacing" textLength="99.709" x="537" y="120.1592">filtering important</text><text fill="#000000" font-family="sans-serif" font-size="13" lengthAdjust="spacing" textLength="166.8545" x="537" y="136.5107">data to build 'job_description'</text><g class="message" data-participant-1="Router" data-participant-2="Router"><polygon fill="#181818" points="141.8799,167.7188,151.8799,171.7188,141.8799,175.7188,145.8799,171.7188" style="stroke:#181818;stroke-width:1;"/><line style="stroke:#181818;stroke-width:1;stroke-dasharray:2,2;" x1="0" x2="147.8799" y1="171.7188" y2="171.7188"/><text fill="#000000" font-family="sans-serif" font-size="13" lengthAdjust="spacing" textLength="119.9136" x="7" y="166.8623">GET, POST /scraper</text></g><g class="message" data-participant-1="Router" data-participant-2="ScraperCtrl"><polygon fill="#181818" points="268.3589,198.0703,278.3589,202.0703,268.3589,206.0703,272.3589,202.0703" style="stroke:#181818;stroke-width:1;"/><line style="stroke:#181818;stroke-width:1;" x1="163.8799" x2="274.3589" y1="202.0703" y2="202.0703"/><text fill="#000000" font-family="sans-serif" font-size="13" lengthAdjust="spacing" textLength="95.3799" x="170.8799" y="197.2139">Scrape websites</text></g><path d="M211.5591,217.0703 L283.9937,217.0703 L283.9937,225.4219 L273.9937,235.4219 L211.5591,235.4219 L211.5591,217.0703" fill="#EEEEEE" style="stroke:#000000;stroke-width:1.5;"/><rect fill="none" height="540.2734" style="stroke:#000000;stroke-width:1.5;" width="639.6592" x="211.5591" y="217.0703"/><text fill="#000000" font-family="sans-serif" font-size="13" font-weight="bold" lengthAdjust="spacing" textLength="27.4346" x="226.5591" y="231.5654">loop</text><text fill="#000000" font-family="sans-serif" font-size="11" font-weight="bold" lengthAdjust="spacing" textLength="53.7915" x="298.9937" y="230.4893">[websites]</text><g class="message" data-participant-1="ScraperCtrl" data-participant-2="ScraperProcessor"><polygon fill="#181818" points="509.7368,253.7734,519.7368,257.7734,509.7368,261.7734,513.7368,257.7734" style="stroke:#181818;stroke-width:1;"/><line style="stroke:#181818;stroke-width:1;" x1="290.3589" x2="515.7368" y1="257.7734" y2="257.7734"/><text fill="#000000" font-family="sans-serif" font-size="13" lengthAdjust="spacing" textLength="94.6499" x="297.3589" y="252.917">Process website</text></g><g class="message" data-participant-1="ScraperProcessor" data-participant-2="ScraperProcessor"><line style="stroke:#181818;stroke-width:1;" x1="531.7368" x2="573.7368" y1="288.125" y2="288.125"/><line style="stroke:#181818;stroke-width:1;" x1="573.7368" x2="573.7368" y1="288.125" y2="301.125"/><line style="stroke:#181818;stroke-width:1;" x1="532.7368" x2="573.7368" y1="301.125" y2="301.125"/><polygon fill="#181818" points="542.7368,297.125,532.7368,301.125,542.7368,305.125,538.7368,301.125" style="stroke:#181818;stroke-width:1;"/><text fill="#000000" font-family="sans-serif" font-size="13" lengthAdjust="spacing" textLength="84.5381" x="538.7368" y="283.2686">Check website</text></g><path d="M536,314.125 L536,340.125 L767,340.125 L767,324.125 L757,314.125 L536,314.125" fill="#FEFFDD" style="stroke:#181818;stroke-width:0.5;"/><path d="M757,314.125 L757,324.125 L767,324.125 L757,314.125" fill="#FEFFDD" style="stroke:#181818;stroke-width:0.5;"/><text fill="#000000" font-family="sans-serif" font-size="13" lengthAdjust="spacing" textLength="210.2026" x="542" y="332.6201">Example based on 'netempregos.pt':</text><g class="message" data-participant-1="ScraperProcessor" data-participant-2="ScraperProcessor"><line style="stroke:#181818;stroke-width:1;" x1="531.7368" x2="573.7368" y1="367.8281" y2="367.8281"/><line style="stroke:#181818;stroke-width:1;" x1="573.7368" x2="573.7368" y1="367.8281" y2="380.8281"/><line style="stroke:#181818;stroke-width:1;" x1="532.7368" x2="573.7368" y1="380.8281" y2="380.8281"/><polygon fill="#181818" points="542.7368,376.8281,532.7368,380.8281,542.7368,384.8281,538.7368,380.8281" style="stroke:#181818;stroke-width:1;"/><text fill="#000000" font-family="sans-serif" font-size="13" lengthAdjust="spacing" textLength="169.0825" x="538.7368" y="362.9717">Check if website is supported</text></g><g class="message" data-participant-1="ScraperProcessor" data-participant-2="ScraperProcessor"><line style="stroke:#181818;stroke-width:1;" x1="531.7368" x2="573.7368" y1="411.1797" y2="411.1797"/><line style="stroke:#181818;stroke-width:1;" x1="573.7368" x2="573.7368" y1="411.1797" y2="424.1797"/><line style="stroke:#181818;stroke-width:1;" x1="532.7368" x2="573.7368" y1="424.1797" y2="424.1797"/><polygon fill="#181818" points="542.7368,420.1797,532.7368,424.1797,542.7368,428.1797,538.7368,424.1797" style="stroke:#181818;stroke-width:1;"/><text fill="#000000" font-family="sans-serif" font-size="13" lengthAdjust="spacing" textLength="133.7134" x="538.7368" y="406.3232">Load cookies if needed</text></g><g class="message" data-participant-1="ScraperProcessor" data-participant-2="websiteHTML"><polygon fill="#181818" points="770.9321,450.5313,780.9321,454.5313,770.9321,458.5313,774.9321,454.5313" style="stroke:#181818;stroke-width:1;"/><line style="stroke:#181818;stroke-width:1;" x1="531.7368" x2="776.9321" y1="454.5313" y2="454.5313"/><text fill="#000000" font-family="sans-serif" font-size="13" lengthAdjust="spacing" textLength="119.2026" x="538.7368" y="449.6748">Fetch website HTML</text></g><g class="message" data-participant-1="websiteHTML" data-participant-2="ScraperProcessor"><polygon fill="#181818" points="542.7368,480.8828,532.7368,484.8828,542.7368,488.8828,538.7368,484.8828" style="stroke:#181818;stroke-width:1;"/><line style="stroke:#181818;stroke-width:1;stroke-dasharray:2,2;" x1="536.7368" x2="786.9321" y1="484.8828" y2="484.8828"/><text fill="#000000" font-family="sans-serif" font-size="13" lengthAdjust="spacing" textLength="130.7744" x="548.7368" y="480.0264">Returns HTML content</text></g><g class="message" data-participant-1="ScraperProcessor" data-participant-2="ScraperProcessor"><line style="stroke:#181818;stroke-width:1;" x1="531.7368" x2="573.7368" y1="515.2344" y2="515.2344"/><line style="stroke:#181818;stroke-width:1;" x1="573.7368" x2="573.7368" y1="515.2344" y2="528.2344"/><line style="stroke:#181818;stroke-width:1;" x1="532.7368" x2="573.7368" y1="528.2344" y2="528.2344"/><polygon fill="#181818" points="542.7368,524.2344,532.7368,528.2344,542.7368,532.2344,538.7368,528.2344" style="stroke:#181818;stroke-width:1;"/><text fill="#000000" font-family="sans-serif" font-size="13" lengthAdjust="spacing" textLength="175.5762" x="538.7368" y="510.3779">Extract cards with job postings</text></g><g class="message" data-participant-1="ScraperProcessor" data-participant-2="ScraperProcessor"><line style="stroke:#181818;stroke-width:1;" x1="531.7368" x2="573.7368" y1="558.5859" y2="558.5859"/><line style="stroke:#181818;stroke-width:1;" x1="573.7368" x2="573.7368" y1="558.5859" y2="571.5859"/><line style="stroke:#181818;stroke-width:1;" x1="532.7368" x2="573.7368" y1="571.5859" y2="571.5859"/><polygon fill="#181818" points="542.7368,567.5859,532.7368,571.5859,542.7368,575.5859,538.7368,571.5859" style="stroke:#181818;stroke-width:1;"/><text fill="#000000" font-family="sans-serif" font-size="13" lengthAdjust="spacing" textLength="178.458" x="538.7368" y="553.7295">Extract job postings from cards</text></g><g class="message" data-participant-1="ScraperProcessor" data-participant-2="websiteHTML"><polygon fill="#181818" points="770.9321,597.9375,780.9321,601.9375,770.9321,605.9375,774.9321,601.9375" style="stroke:#181818;stroke-width:1;"/><line style="stroke:#181818;stroke-width:1;" x1="531.7368" x2="776.9321" y1="601.9375" y2="601.9375"/><text fill="#000000" font-family="sans-serif" font-size="13" lengthAdjust="spacing" textLength="230.4961" x="538.7368" y="597.0811">Extract job description from job postings</text></g><g class="message" data-participant-1="websiteHTML" data-participant-2="ScraperProcessor"><polygon fill="#181818" points="542.7368,628.2891,532.7368,632.2891,542.7368,636.2891,538.7368,632.2891" style="stroke:#181818;stroke-width:1;"/><line style="stroke:#181818;stroke-width:1;stroke-dasharray:2,2;" x1="536.7368" x2="786.9321" y1="632.2891" y2="632.2891"/><text fill="#000000" font-family="sans-serif" font-size="13" lengthAdjust="spacing" textLength="227.1953" x="548.7368" y="627.4326">Returns job description's HTML content</text></g><g class="message" data-participant-1="ScraperProcessor" data-participant-2="ScraperProcessor"><line style="stroke:#181818;stroke-width:1;" x1="531.7368" x2="573.7368" y1="662.6406" y2="662.6406"/><line style="stroke:#181818;stroke-width:1;" x1="573.7368" x2="573.7368" y1="662.6406" y2="675.6406"/><line style="stroke:#181818;stroke-width:1;" x1="532.7368" x2="573.7368" y1="675.6406" y2="675.6406"/><polygon fill="#181818" points="542.7368,671.6406,532.7368,675.6406,542.7368,679.6406,538.7368,675.6406" style="stroke:#181818;stroke-width:1;"/><text fill="#000000" font-family="sans-serif" font-size="13" lengthAdjust="spacing" textLength="205.2134" x="538.7368" y="657.7842">Create job description from job post</text></g><g class="message" data-participant-1="ScraperProcessor" data-participant-2="ScraperCtrl"><polygon fill="#181818" points="301.3589,701.9922,291.3589,705.9922,301.3589,709.9922,297.3589,705.9922" style="stroke:#181818;stroke-width:1;"/><line style="stroke:#181818;stroke-width:1;" x1="295.3589" x2="525.7368" y1="705.9922" y2="705.9922"/><text fill="#000000" font-family="sans-serif" font-size="13" lengthAdjust="spacing" textLength="132.958" x="307.3589" y="701.1357">Returns job description</text></g><g class="message" data-participant-1="ScraperCtrl" data-participant-2="ScraperCtrl"><line style="stroke:#181818;stroke-width:1;" x1="290.3589" x2="332.3589" y1="736.3438" y2="736.3438"/><line style="stroke:#181818;stroke-width:1;" x1="332.3589" x2="332.3589" y1="736.3438" y2="749.3438"/><line style="stroke:#181818;stroke-width:1;" x1="291.3589" x2="332.3589" y1="749.3438" y2="749.3438"/><polygon fill="#181818" points="301.3589,745.3438,291.3589,749.3438,301.3589,753.3438,297.3589,749.3438" style="stroke:#181818;stroke-width:1;"/><text fill="#000000" font-family="sans-serif" font-size="13" lengthAdjust="spacing" textLength="193.6733" x="297.3589" y="731.4873">Append job description to jobs list</text></g><g class="message" data-participant-1="ScraperCtrl" data-participant-2="ScraperCtrl"><line style="stroke:#181818;stroke-width:1;" x1="290.3589" x2="332.3589" y1="786.6953" y2="786.6953"/><line style="stroke:#181818;stroke-width:1;" x1="332.3589" x2="332.3589" y1="786.6953" y2="799.6953"/><line style="stroke:#181818;stroke-width:1;" x1="291.3589" x2="332.3589" y1="799.6953" y2="799.6953"/><polygon fill="#181818" points="301.3589,795.6953,291.3589,799.6953,301.3589,803.6953,297.3589,799.6953" style="stroke:#181818;stroke-width:1;"/><text fill="#000000" font-family="sans-serif" font-size="13" lengthAdjust="spacing" textLength="207.3779" x="297.3589" y="781.8389">Model job fields from job description</text></g><g class="message" data-participant-1="ScraperCtrl" data-participant-2="FlowCtrl"><polygon fill="#181818" points="866.8838,851.3984,876.8838,855.3984,866.8838,859.3984,870.8838,855.3984" style="stroke:#181818;stroke-width:1;"/><line style="stroke:#181818;stroke-width:1;" x1="285.3589" x2="872.8838" y1="855.3984" y2="855.3984"/><text fill="#000000" font-family="sans-serif" font-size="13" lengthAdjust="spacing" textLength="95.3735" x="292.3589" y="850.542">Extract job fields</text></g><path d="M893,868.3984 L893,894.3984 L1170,894.3984 L1170,878.3984 L1160,868.3984 L893,868.3984" fill="#FEFFDD" style="stroke:#181818;stroke-width:0.5;"/><path d="M1160,868.3984 L1160,878.3984 L1170,878.3984 L1160,868.3984" fill="#FEFFDD" style="stroke:#181818;stroke-width:0.5;"/><text fill="#000000" font-family="sans-serif" font-size="13" lengthAdjust="spacing" textLength="256.5151" x="899" y="886.8936">This phase is equal to the UC1 process view</text><g class="message" data-participant-1="FlowCtrl" data-participant-2="ScraperCtrl"><polygon fill="#181818" points="301.3589,918.1016,291.3589,922.1016,301.3589,926.1016,297.3589,922.1016" style="stroke:#181818;stroke-width:1;"/><line style="stroke:#181818;stroke-width:1;stroke-dasharray:2,2;" x1="295.3589" x2="882.8838" y1="922.1016" y2="922.1016"/><text fill="#000000" font-family="sans-serif" font-size="13" lengthAdjust="spacing" textLength="156.8062" x="307.3589" y="917.2451">Returns modelled job fields</text></g><g class="message" data-participant-1="ScraperCtrl" data-participant-2="ScraperCtrl"><line style="stroke:#181818;stroke-width:1;" x1="290.3589" x2="332.3589" y1="985.1563" y2="985.1563"/><line style="stroke:#181818;stroke-width:1;" x1="332.3589" x2="332.3589" y1="985.1563" y2="998.1563"/><line style="stroke:#181818;stroke-width:1;" x1="291.3589" x2="332.3589" y1="998.1563" y2="998.1563"/><polygon fill="#181818" points="301.3589,994.1563,291.3589,998.1563,301.3589,1002.1563,297.3589,998.1563" style="stroke:#181818;stroke-width:1;"/><text fill="#000000" font-family="sans-serif" font-size="13" lengthAdjust="spacing" textLength="166.2197" x="297.3589" y="947.5967">Appends modelled job fields,</text><text fill="#000000" font-family="sans-serif" font-size="13" lengthAdjust="spacing" textLength="172.7007" x="297.3589" y="963.9482">website url and a flag marking</text><text fill="#000000" font-family="sans-serif" font-size="13" lengthAdjust="spacing" textLength="202.3315" x="297.3589" y="980.2998">if the modelled job field is complete</text></g><g class="message" data-participant-1="ScraperCtrl" data-participant-2="Router"><polygon fill="#181818" points="174.8799,1024.5078,164.8799,1028.5078,174.8799,1032.5078,170.8799,1028.5078" style="stroke:#181818;stroke-width:1;"/><line style="stroke:#181818;stroke-width:1;" x1="168.8799" x2="284.3589" y1="1028.5078" y2="1028.5078"/><text fill="#000000" font-family="sans-serif" font-size="13" lengthAdjust="spacing" textLength="92.479" x="180.8799" y="1023.6514">Returns jobs list</text></g><g class="message" data-participant-1="Router" data-participant-2="Router"><polygon fill="#181818" points="11,1054.8594,1,1058.8594,11,1062.8594,7,1058.8594" style="stroke:#181818;stroke-width:1;"/><line style="stroke:#181818;stroke-width:1;stroke-dasharray:2,2;" x1="5" x2="157.8799" y1="1058.8594" y2="1058.8594"/><text fill="#000000" font-family="sans-serif" font-size="13" lengthAdjust="spacing" textLength="127.8799" x="17" y="1054.0029">Returns jobs list result</text></g><!--SRC=[jLPDRzim3BthLn2zv99isBKO1Wn1knrQh6Wpx59WK2mwrgf8cYGt_VcZ_1NLLjgisNXA9FAHZwH8M-w2BAJbEi2jgGCwuBxxnMnoUNPNE6xfUcbqS4OfT6THjJjU1gVo-ZVE5EYzUQO-739j0eAJcog0AQVNG38-X9rK2fehXq8wB0840noynKAMicYkV6irXpNtAC1e21N23jTU1fmtAgLKH5Fg3SYjDIvGtCsvu857n7KjbO3PBxF-AP3mf0tIw1b3BI36_PpmZnOQlgwkhngkdQ_udx75ubEVu7FuSh6QmystknMyxy9al0ZoaPDvb_iOHwTFbacMoRpzr-FxHZVAW94MPRYDeeonKxjUKYzxf_kyd_V5x24c2EC8zeMSg6Ohc_UwhB1uw7r25kc8Dih9nHFVMeNx7fbf3BYr3ZV6lxDXTfur7HhWP5Ao77X93xwsiGzHd09yPRY0mfW7YJxYQqH1Y4T39crBQ9SOYcg8iUdb7D1G-BJf3sKzzR38axZ5K3lj6uT4HWVitkPO16PTdvB0YwVW21GAxWIrkWmLq0W0QtoWMU7_1NIA1wKpszRP6skKeYQ3gWL-DVJ_LRfHDBEt5_EKL-OmehsOcR_5xwRm0Pxi1LAlpgNy1EuSVhOs3fun5rfKTEH1oH4LKcP7WryRWQh1BYKguVSfIdqbqZunha9Yn0wukbHcr_b9UtLaD4rKiy0cVTgZiVpmdrn7MLKqNcr5OpxEMVnTSnKJ5py9lYy_WEtssgF47PjC-MT80vV5mOxOnbmg53cI8wBPO5_VuqVqIJQC-RtkHtbDkfmOSYWLty2MkmSQ4VUQDaRCojGu9gumSLsE5jyecE4h9taWe-uyK6dsSR5umPo-zdoj0akiM-K_]--></g></svg>